<svg width="34" height="35" viewBox="0 0 34 35" fill="none" xmlns="http://www.w3.org/2000/svg">
<path fill-rule="evenodd" clip-rule="evenodd" d="M22.2452 15.7412C22.792 11.1859 25.4573 7.31658 29.1819 5.18844C26.4482 2.32161 22.792 0.422111 18.7085 0V15.7412H22.2452ZM2.63116 8.00251C5.58693 9.46231 7.7397 12.3116 8.30352 15.7412H0C0.273367 12.9095 1.21307 10.2714 2.63116 8.00251ZM34 15.7412H25.6965C26.2603 12.3116 28.4131 9.46231 31.3688 8.00251C32.7869 10.2714 33.7266 12.9095 34 15.7412ZM15.2915 15.7412H11.7548C11.208 11.1859 8.54271 7.31658 4.81809 5.18844C7.53467 2.32161 11.208 0.422111 15.2915 0V15.7412ZM22.2452 19.2588H18.7085V35C22.792 34.5779 26.4653 32.6784 29.1819 29.8116C25.4573 27.6834 22.792 23.8141 22.2452 19.2588ZM8.30352 19.2588C7.7397 22.6709 5.56985 25.5377 2.63116 26.9975C1.21307 24.7286 0.273367 22.0905 0 19.2588H8.30352ZM25.6965 19.2588C26.2603 22.6884 28.4131 25.5377 31.3688 26.9975C32.7869 24.7286 33.7266 22.0905 34 19.2588H25.6965ZM4.81809 29.8116C8.54271 27.6834 11.208 23.8141 11.7548 19.2588H15.2915V35C11.208 34.5779 7.55176 32.6784 4.81809 29.8116Z" fill="white"/>
</svg>
