<?xml version="1.0" encoding="UTF-8"?>
<svg width="34px" height="34px" viewBox="0 0 34 34" version="1.1" xmlns="http://www.w3.org/2000/svg" xmlns:xlink="http://www.w3.org/1999/xlink">
    <!-- Generator: Sketch 56 (81588) - https://sketch.com -->
    <title>basketball-icon</title>
    <desc>Created with Sketch.</desc>
    <g id="Welcome" stroke="none" stroke-width="1" fill="none" fill-rule="evenodd">
        <g id="Subscribes-Page" transform="translate(-920.000000, -333.000000)" fill="#FFFFFF" fill-rule="nonzero">
            <g id="Subcribes" transform="translate(108.000000, 164.000000)">
                <g id="item" transform="translate(575.000000, 0.000000)">
                    <g id="content" transform="translate(19.000000, 92.000000)">
                        <g id="sports-icons" transform="translate(144.000000, 68.000000)">
                            <path d="M99.653,24.3 C100.214,20.985 102.356,18.231 105.297,16.82 C106.708,19.013 107.643,21.563 107.915,24.3 L99.653,24.3 Z M82.347,24.3 L74.085,24.3 C74.357,21.563 75.292,19.013 76.703,16.82 C79.644,18.231 81.786,20.985 82.347,24.3 Z M96.219,24.3 L92.7,24.3 L92.7,9.085 C96.763,9.493 100.401,11.329 103.121,14.1 C99.415,16.157 96.763,19.897 96.219,24.3 Z M85.781,24.3 C85.237,19.897 82.585,16.157 78.879,14.1 C81.582,11.329 85.237,9.493 89.3,9.085 L89.3,24.3 L85.781,24.3 Z M96.219,27.7 C96.763,32.103 99.415,35.843 103.121,37.9 C100.418,40.671 96.763,42.507 92.7,42.915 L92.7,27.7 L96.219,27.7 Z M76.703,35.18 C75.292,32.987 74.357,30.437 74.085,27.7 L82.347,27.7 C81.786,30.998 79.627,33.769 76.703,35.18 Z M99.653,27.7 L107.915,27.7 C107.643,30.437 106.708,32.987 105.297,35.18 C102.356,33.769 100.214,31.015 99.653,27.7 Z M85.781,27.7 L89.3,27.7 L89.3,42.915 C85.237,42.507 81.599,40.671 78.879,37.9 C82.585,35.843 85.237,32.103 85.781,27.7 Z" id="basketball-icon"></path>
                        </g>
                    </g>
                </g>
            </g>
        </g>
    </g>
</svg>