<?xml version="1.0" encoding="UTF-8"?>
<svg width="33px" height="33px" viewBox="0 0 33 33" version="1.1" xmlns="http://www.w3.org/2000/svg" xmlns:xlink="http://www.w3.org/1999/xlink">
    <!-- Generator: Sketch 56 (81588) - https://sketch.com -->
    <title>football-icon</title>
    <desc>Created with Sketch.</desc>
    <g id="Welcome" stroke="none" stroke-width="1" fill="none" fill-rule="evenodd">
        <g id="Subscribes-Page" transform="translate(-875.000000, -334.000000)" fill="#FFFFFF" fill-rule="nonzero">
            <g id="Subcribes" transform="translate(108.000000, 164.000000)">
                <g id="item" transform="translate(575.000000, 0.000000)">
                    <g id="content" transform="translate(19.000000, 92.000000)">
                        <g id="sports-icons" transform="translate(144.000000, 68.000000)">
                            <path d="M45.5,10 C36.392,10 29,17.392 29,26.5 C29,35.608 36.392,43 45.5,43 C54.608,43 62,35.608 62,26.5 C62,17.392 54.608,10 45.5,10 Z M47.15,15.445 L49.3775,13.8775 C52.3805,14.8015 54.938,16.7815 56.6045,19.3885 L55.961,21.5995 L53.7335,22.3585 L47.15,17.755 L47.15,15.445 Z M41.6225,13.8775 L43.85,15.445 L43.85,17.755 L37.2665,22.3585 L35.039,21.5995 L34.3955,19.3885 C36.062,16.798 38.6195,14.818 41.6225,13.8775 Z M37.382,34.9315 L35.501,35.0965 C33.5045,32.7865 32.3,29.7835 32.3,26.5 C32.3,26.302 32.3165,26.1205 32.333,25.9225 L33.983,24.718 L36.26,25.51 L38.669,32.671 L37.382,34.9315 Z M49.625,39.0235 C48.3215,39.4525 46.9355,39.7 45.5,39.7 C44.0645,39.7 42.6785,39.4525 41.375,39.0235 L40.2365,36.565 L41.2925,34.75 L49.724,34.75 L50.78,36.5815 L49.625,39.0235 Z M49.2455,31.45 L41.7545,31.45 L39.527,24.817 L45.5,20.626 L51.4895,24.817 L49.2455,31.45 Z M55.499,35.0965 L53.618,34.9315 L52.3145,32.671 L54.7235,25.51 L57.017,24.7345 L58.667,25.939 C58.6835,26.1205 58.7,26.302 58.7,26.5 C58.7,29.7835 57.4955,32.7865 55.499,35.0965 Z" id="football-icon"></path>
                        </g>
                    </g>
                </g>
            </g>
        </g>
    </g>
</svg>