<svg width="33" height="34" viewBox="0 0 33 34" fill="none" xmlns="http://www.w3.org/2000/svg">
<path fill-rule="evenodd" clip-rule="evenodd" d="M16.5 0C7.392 0 0 7.616 0 17C0 26.384 7.392 34 16.5 34C25.608 34 33 26.384 33 17C33 7.616 25.608 0 16.5 0ZM18.15 5.61L20.3775 3.995C23.3805 4.947 25.938 6.987 27.6045 9.673L26.961 11.951L24.7335 12.733L18.15 7.99V5.61ZM14.85 5.61L12.6225 3.995C9.6195 4.964 7.062 7.004 5.3955 9.673L6.039 11.951L8.2665 12.733L14.85 7.99V5.61ZM8.382 25.687L6.501 25.857C4.5045 23.477 3.3 20.383 3.3 17C3.3 16.8106 3.31422 16.6359 3.32945 16.4487L3.333 16.405L4.983 15.164L7.26 15.98L9.669 23.358L8.382 25.687ZM16.5 30.6C17.9355 30.6 19.3215 30.345 20.625 29.903L21.78 27.387L20.724 25.5H12.2925L11.2365 27.37L12.375 29.903C13.6785 30.345 15.0645 30.6 16.5 30.6ZM20.2455 22.1H12.7545L10.527 15.266L16.5 10.948L22.4895 15.266L20.2455 22.1ZM24.618 25.687L26.499 25.857C28.4955 23.477 29.7 20.383 29.7 17C29.7 16.796 29.6835 16.609 29.667 16.422L28.017 15.181L25.7235 15.98L23.3145 23.358L24.618 25.687Z" fill="white"/>
</svg>
