<?xml version="1.0" encoding="UTF-8"?>
<svg width="40px" height="41px" viewBox="0 0 40 41" version="1.1" xmlns="http://www.w3.org/2000/svg" xmlns:xlink="http://www.w3.org/1999/xlink">
    <!-- Generator: Sketch 56 (81588) - https://sketch.com -->
    <title>search-icon</title>
    <desc>Created with Sketch.</desc>
    <g id="Welcome" stroke="none" stroke-width="1" fill="none" fill-rule="evenodd">
        <g id="Notifications---friends" transform="translate(-1641.000000, -69.000000)" fill="#B2CAD6" fill-rule="nonzero">
            <g id="nav" transform="translate(1533.000000, 45.000000)">
                <path d="M136.587764,49.7158376 L134.781018,49.7158376 L134.140652,49.0913249 C136.381933,46.4544935 137.731275,43.0312386 137.731275,39.3072925 C137.731275,31.0035865 131.076043,24.2727273 122.865638,24.2727273 C114.655232,24.2727273 108,31.0035865 108,39.3072925 C108,47.6109985 114.655232,54.3418577 122.865638,54.3418577 C126.547742,54.3418577 129.932533,52.9771818 132.539737,50.7104319 L133.157233,51.3580747 L133.157233,53.1853527 L144.592338,64.7272727 L148,61.2808878 L136.587764,49.7158376 Z M122.865638,49.7158376 C117.170955,49.7158376 112.574042,45.0666875 112.574042,39.3072925 C112.574042,33.5478975 117.170955,28.8987473 122.865638,28.8987473 C128.56032,28.8987473 133.157233,33.5478975 133.157233,39.3072925 C133.157233,45.0666875 128.56032,49.7158376 122.865638,49.7158376 Z" id="search-icon"></path>
            </g>
        </g>
    </g>
</svg>