<svg width="207" height="35" viewBox="0 0 207 35" fill="none" xmlns="http://www.w3.org/2000/svg">
<path fill-rule="evenodd" clip-rule="evenodd" d="M17.5 26.75L7.80154 31.8488L9.65378 21.0494L1.80757 13.4012L12.6508 11.8256L17.5 2L22.3492 11.8256L33.1924 13.4012L25.3462 21.0494L27.1985 31.8488L17.5 26.75Z" stroke="#FFDF00"/>
<path fill-rule="evenodd" clip-rule="evenodd" d="M60.5 26.75L50.8015 31.8488L52.6538 21.0494L44.8076 13.4012L55.6508 11.8256L60.5 2L65.3492 11.8256L76.1924 13.4012L68.3462 21.0494L70.1985 31.8488L60.5 26.75Z" stroke="#FFDF00"/>
<path fill-rule="evenodd" clip-rule="evenodd" d="M103.5 26.75L93.8015 31.8488L95.6538 21.0494L87.8076 13.4012L98.6508 11.8256L103.5 2L108.349 11.8256L119.192 13.4012L111.346 21.0494L113.198 31.8488L103.5 26.75Z" stroke="#FFDF00"/>
<path fill-rule="evenodd" clip-rule="evenodd" d="M146.5 26.75L136.802 31.8488L138.654 21.0494L130.808 13.4012L141.651 11.8256L146.5 2L151.349 11.8256L162.192 13.4012L154.346 21.0494L156.198 31.8488L146.5 26.75Z" stroke="#FFDF00"/>
<path fill-rule="evenodd" clip-rule="evenodd" d="M189.5 26.75L179.802 31.8488L181.654 21.0494L173.808 13.4012L184.651 11.8256L189.5 2L194.349 11.8256L205.192 13.4012L197.346 21.0494L199.198 31.8488L189.5 26.75Z" stroke="#FFDF00"/>
</svg>
