<svg width="29" height="40" viewBox="0 0 29 40" fill="none" xmlns="http://www.w3.org/2000/svg">
<path fill-rule="evenodd" clip-rule="evenodd" d="M22.4 9.58339C22.4 14.876 18.9972 19.1667 14.8 19.1667C10.6028 19.1667 7.20011 14.876 7.2 9.58339C7.2 4.29065 8.31716 0 14.8 0C21.2826 0 22.4 4.29065 22.4 9.58339ZM18.5751 20.8333C27.479 22.4859 28.6427 25.0966 28.7837 34.2585C28.7927 34.8444 28.7976 34.9458 28.8 34.8935C28.7998 35.0487 28.7995 35.2771 28.7995 35.6054C28.7995 35.6054 26.6794 40 14.4002 40C2.12105 40 0.00114757 35.6054 0.00114757 35.6054C0.00114757 35.0943 0.000459026 34.8013 0 34.6428C0.00240989 34.7274 0.00849199 34.6892 0.021689 33.9607C0.183955 25.0398 1.41851 22.4678 10.2254 20.8333C10.2254 20.8333 11.4788 22.4757 14.4001 22.4757C17.3215 22.4757 18.5751 20.8333 18.5751 20.8333Z" fill="#414B50"/>
</svg>
