<?xml version="1.0" encoding="UTF-8"?>
<svg width="45px" height="40px" viewBox="0 0 45 40" version="1.1" xmlns="http://www.w3.org/2000/svg" xmlns:xlink="http://www.w3.org/1999/xlink">
    <!-- Generator: Sketch 56 (81588) - https://sketch.com -->
    <title>users-icon</title>
    <desc>Created with Sketch.</desc>
    <g id="Welcome" stroke="none" stroke-width="1" fill="none" fill-rule="evenodd">
        <g id="Search-Page" transform="translate(-1526.000000, -328.000000)" fill="#FFFFFF" fill-rule="nonzero">
            <g id="active-input" transform="translate(214.000000, 174.000000)">
                <g id="search-item" transform="translate(0.000000, 129.000000)">
                    <path d="M1334.8,44.1666667 C1330.60283,44.1666667 1327.2,39.8760154 1327.2,34.5833927 C1327.2,29.2906513 1328.31716,25 1334.8,25 C1341.28262,25 1342.4,29.2906513 1342.4,34.5833927 C1342.4,39.8760154 1338.99717,44.1666667 1334.8,44.1666667 Z M1348.7837,59.2584731 C1348.79266,59.8443914 1348.79759,59.9457617 1348.8,59.8934834 C1348.8,60.0486662 1348.79954,60.277133 1348.79954,60.605436 C1348.79954,60.605436 1346.67941,65 1334.40023,65 C1322.12105,65 1320.00115,60.605436 1320.00115,60.605436 C1320.00115,60.0943359 1320.00046,59.8013178 1320,59.6428308 C1320.00241,59.7274437 1320.00849,59.6892086 1320.02169,58.9607346 C1320.18395,50.0397898 1321.41851,47.467768 1330.22539,45.8333333 C1330.22539,45.8333333 1331.47876,47.4756746 1334.40011,47.4756746 C1337.32147,47.4756746 1338.57507,45.8333333 1338.57507,45.8333333 C1347.47904,47.4859415 1348.64267,50.0965525 1348.7837,59.2584731 Z M1345.1571,43.3333333 C1344.16352,43.3333333 1343.22671,43.0172199 1342.4,42.4603674 C1343.60278,40.4060528 1344.25591,37.9249791 1344.25591,35.3262536 C1344.25591,33.0310792 1344.09274,30.1557394 1342.90217,27.788452 C1343.54398,27.60062 1344.29007,27.5 1345.1571,27.5 C1350.31169,27.5 1351.2,31.0444083 1351.2,35.4167271 C1351.2,39.788925 1348.49453,43.3333333 1345.1571,43.3333333 Z M1356.78678,54.1999566 C1356.79402,54.6775677 1356.79805,54.7568364 1356.8,54.7126153 C1356.79954,54.8383396 1356.79954,55.0222804 1356.79954,55.2904295 C1356.79954,55.2904295 1355.80094,57.3480031 1350.92837,58.3333333 C1350.8454,53.4910081 1350.44338,50.1948916 1348.69477,47.74121 C1347.68329,46.3219017 1346.3098,45.3519783 1344.8,44.6553788 C1344.89378,44.6597303 1344.98906,44.6627882 1345.08732,44.6627882 C1347.46355,44.6627882 1348.48307,43.3333333 1348.48307,43.3333333 C1355.72555,44.6710208 1356.67186,46.784106 1356.78678,54.1999566 Z M1323.64268,43.3333333 C1320.30547,43.3333333 1317.6,39.788898 1317.6,35.4167875 C1317.6,31.0444354 1318.48809,27.5 1323.64268,27.5 C1324.50993,27.5 1325.2559,27.6006207 1325.89761,27.7884542 C1324.70726,30.1556389 1324.54409,33.0310006 1324.54409,35.3263133 C1324.54409,37.9250586 1325.19722,40.4061513 1326.4,42.4604815 C1325.57295,43.0172175 1324.63637,43.3333333 1323.64268,43.3333333 Z M1324,44.6553892 C1322.49017,45.3519941 1321.11688,46.3220428 1320.10551,47.741127 C1318.35663,50.1949454 1317.95483,53.4910878 1317.87151,58.3333333 C1312.9992,57.3479954 1312.00046,55.2904056 1312.00046,55.2904056 C1312.00046,55.0222545 1312.00023,54.8383122 1312,54.7125869 C1312.00195,54.7569259 1312.00575,54.6777743 1312.01322,54.2000418 C1312.12792,46.7840155 1313.07447,44.6710313 1320.31686,43.3333333 C1320.31686,43.3333333 1321.3364,44.6627986 1323.71268,44.6627986 C1323.81117,44.6627986 1323.90645,44.6597407 1324,44.6553892 Z" id="users-icon"></path>
                </g>
            </g>
        </g>
    </g>
</svg>