<?xml version="1.0" encoding="UTF-8"?>
<svg width="33px" height="33px" viewBox="0 0 33 33" version="1.1" xmlns="http://www.w3.org/2000/svg" xmlns:xlink="http://www.w3.org/1999/xlink">
    <!-- Generator: Sketch 56 (81588) - https://sketch.com -->
    <title>valleyball-icon</title>
    <desc>Created with Sketch.</desc>
    <g id="Welcome" stroke="none" stroke-width="1" fill="none" fill-rule="evenodd">
        <g id="Subscribes-Page" transform="translate(-967.000000, -334.000000)" fill="#FFFFFF" fill-rule="nonzero">
            <g id="Subcribes" transform="translate(108.000000, 164.000000)">
                <g id="item" transform="translate(575.000000, 0.000000)">
                    <g id="content" transform="translate(19.000000, 92.000000)">
                        <g id="sports-icons" transform="translate(144.000000, 68.000000)">
                            <path d="M127.6,13.3165 L127.6,30.3115 L122.4685,33.2815 C121.528,31.2025 121,28.909 121,26.5 C121,21.1045 123.607,16.336 127.6,13.3165 Z M135.85,25.543 L130.9,28.414 L130.9,11.386 C132.4345,10.7095 134.101,10.264 135.85,10.0825 L135.85,25.543 Z M137.5,28.3975 L142.45,31.2685 L127.7155,39.7495 C126.3295,38.743 125.125,37.5055 124.1185,36.1195 L137.5,28.3975 Z M139.15,19.834 L153.8845,28.348 C153.6865,30.0805 153.2245,31.7305 152.5315,33.265 L139.15,25.543 L139.15,19.834 Z M131.0155,41.68 L145.75,33.166 L150.8815,36.136 C147.8785,40.2775 143.011,43 137.5,43 C135.19,43 133.012,42.5215 131.0155,41.68 Z M153.868,24.5365 L139.15,16.0225 L139.15,10.0825 C146.839,10.8415 152.9605,16.897 153.868,24.5365 Z" id="valleyball-icon"></path>
                        </g>
                    </g>
                </g>
            </g>
        </g>
    </g>
</svg>