<?xml version="1.0" encoding="UTF-8"?>
<svg width="34px" height="40px" viewBox="0 0 34 40" version="1.1" xmlns="http://www.w3.org/2000/svg" xmlns:xlink="http://www.w3.org/1999/xlink">
    <!-- Generator: Sketch 56 (81588) - https://sketch.com -->
    <title>workout-icon</title>
    <desc>Created with Sketch.</desc>
    <g id="Welcome" stroke="none" stroke-width="1" fill="none" fill-rule="evenodd">
        <g id="Subscribes-Page" transform="translate(-1013.000000, -330.000000)" fill="#FFFFFF" fill-rule="nonzero">
            <g id="Subcribes" transform="translate(108.000000, 164.000000)">
                <g id="item" transform="translate(575.000000, 0.000000)">
                    <g id="content" transform="translate(19.000000, 92.000000)">
                        <g id="sports-icons" transform="translate(144.000000, 68.000000)">
                            <path d="M181.329507,33 L184,34.9533179 L182.724201,36.4517284 C182.12743,37.1526992 181.129506,37.1864196 180.495235,36.5246568 C179.861538,35.8633711 179.832083,34.7586303 180.429429,34.0571028 L181.329507,33 Z M180.268523,8.29539682 C180.268523,8.91026756 180.533777,9.48999687 181,10 L179,10 L179.101332,8 L180.291041,8 C180.277361,8.09756098 180.268523,8.19588741 180.268523,8.29539682 Z M189,10 L187,10 C187.464704,9.49006646 187.729094,8.91033715 187.729094,8.29539682 C187.729094,8.19581782 187.720164,8.09756098 187.706649,8 L188.898998,8 L189,10 Z M192.804625,9.26161908 L192.998778,13.7821607 C193.029789,14.5021606 192.46676,15.1130721 191.735276,15.1529463 L187.823898,15.3660513 C187.823898,16.2624033 187.823898,22.5716692 187.823898,23.5846787 L189.450803,27.788411 C189.688339,28.4019755 189.548435,29.0950545 189.090731,29.5726875 L188.110052,30.5963874 L185.161747,28.6797689 L185.809003,28.0042471 L184.705947,25.1539774 L183.558714,25.1539774 C181.949178,27.2847154 182.511254,26.5406036 181.433974,27.9667918 L187.419808,31.8580065 C188.221959,32.3794934 188.442523,33.4420532 187.912567,34.2311894 C187.38277,35.0201695 186.302872,35.2377223 185.500484,34.7160013 L177.979744,29.8269153 C177.147059,29.2856083 176.946164,28.1653829 177.542265,27.3763248 C178.716305,25.8220082 178.931951,25.5365676 180.140254,23.9369926 C180.140254,22.8667857 180.140254,16.2135553 180.140254,15.3642566 L176.264724,15.1531024 C175.533319,15.1133061 174.970211,14.5024728 175.001222,13.7823167 L175.195613,9.26161908 C175.226068,8.55433832 175.818997,8 176.530733,8 C176.550402,8 176.569992,8.00046819 176.58982,8.00132654 C177.328522,8.03199306 177.902099,8.64618182 177.870771,9.37297054 L177.732215,12.5948279 L182.047047,12.903522 L185.953111,12.903522 L190.267944,12.5948279 L190.129388,9.37297054 C190.09806,8.64618182 190.671636,8.03214913 191.410339,8.00132654 C191.429135,8.00054622 191.447853,8 191.466332,8 C192.178465,8 192.77409,8.55316784 192.804625,9.26161908 Z M173.559709,42.7959784 C173.802833,42.7959784 174,43.0064006 174,43.266138 L174,45.529763 C174,45.789423 173.802833,46 173.559709,46 L167.440291,46 C167.197167,46 167,45.789423 167,45.529763 L167,43.266138 C167,43.006478 167.197167,42.795901 167.440291,42.795901 L169.458351,42.795901 L169.458351,10.1124967 C169.458351,9.49803003 169.924664,9 170.5,9 L173.752599,9 C173.738464,9.13447507 173.7468,8.98830988 173.658148,11.2250709 L171.541649,11.2250709 L171.541649,42.7959784 L173.559709,42.7959784 Z M200.559782,42.7958303 C200.802906,42.7958303 201,43.006252 201,43.2661437 L201,45.529764 C201,45.7894235 200.802833,46 200.559709,46 L194.440291,46 C194.197167,46 194,45.7894235 194,45.529764 L194,43.2661437 C194,43.0064843 194.197167,42.7959077 194.440291,42.7959077 L196.4461,42.7959077 L196.4461,11.2250662 L194.329602,11.2250662 C194.240949,8.98854216 194.249285,9.13470705 194.23515,9 L197.48775,9 C198.063085,9 198.529399,9.49802898 198.529399,10.1124944 L198.529399,42.7958303 L200.559782,42.7958303 Z M184,12 C182.343146,12 181,10.6568542 181,9 C181,7.34314575 182.343146,6 184,6 C185.656854,6 187,7.34314575 187,9 C187,10.6568542 185.656854,12 184,12 Z" id="workout-icon"></path>
                        </g>
                    </g>
                </g>
            </g>
        </g>
    </g>
</svg>